<?xml version="1.0" encoding="UTF-8" standalone="no"?>
<svg
   version="1.1"
   width="410"
   height="300"
   id="svg1"
   sodipodi:docname="cow.svg"
   inkscape:version="1.4.2 (ebf0e940d0, 2025-05-08)"
   xmlns:inkscape="http://www.inkscape.org/namespaces/inkscape"
   xmlns:sodipodi="http://sodipodi.sourceforge.net/DTD/sodipodi-0.dtd"
   xmlns="http://www.w3.org/2000/svg"
   xmlns:svg="http://www.w3.org/2000/svg">
  <defs
     id="defs1" />
  <sodipodi:namedview
     id="namedview1"
     pagecolor="#ffffff"
     bordercolor="#000000"
     borderopacity="0.25"
     inkscape:showpageshadow="2"
     inkscape:pageopacity="0.0"
     inkscape:pagecheckerboard="0"
     inkscape:deskcolor="#d1d1d1"
     inkscape:zoom="1.1915761"
     inkscape:cx="368"
     inkscape:cy="368"
     inkscape:window-width="1920"
     inkscape:window-height="1056"
     inkscape:window-x="1920"
     inkscape:window-y="0"
     inkscape:window-maximized="1"
     inkscape:current-layer="svg1" />
  <path
     d="m 152.19042,8.6408211 h 21 l 18,3.9999999 4,2 -1,6 -5,6 -12,4 -17,4 -8,5 -3,6 v 6 l 11,7 8,8 8,14 5,16 3,21.999999 v 38 l -1,22 -3,23 -2,12 v 10 l 2,3 7,1 16,-3 8,1 15,2 5,-2 1,-2 v -10 l -4,-25 -1,-10 -1,-22 v -38 l 3,-21.999999 5,-16 6,-11 9,-10 10,-7 2,-1 -1,-9 -4,-5 -9,-4 -21,-5 -6,-3 -4,-5 -1,-6 8,-3 14,-2.9999999 h 21 l 16,3.9999999 9,5 v 3 l -3,6 v 11 l 4,8 5,3 h 8 l 10,-5 11,-7 11,-5 9,-2 h 16 l 15,4 15,8 16,13 6,8 -1,7 -11,4 -10,4 -16,10 -17,11.999994 -13,7.000005 -4,1 h -12 l -8,-5 -9,-8.999999 -4,-2 h -8 l -8,4 -7,6.999999 -7,11 -5,12 v 3 h 5 l 6,-5 5,1 1,6 -1,23 -3,18 -6,18 -8,14 -5,10 -3,11 -1,8 v 9 l 3,17 1,5 v 11 l -3,9 -8,7 -6,2 h -15 l -9,-1 h -28 l -9,1 h -15 l -8,-3 -7,-8 -2,-7 v -11 l 3,-14 1,-8 v -9 l -3,-16 -5,-12 -8,-13 -6,-16 -3,-14 -2,-23 v -8 l 2,-7 6,1 4,4 h 5 l -2,-9 -7,-13 -9,-9.999999 -6,-4 -3,-1 h -8 l -6,4 -8.999998,8.999999 -6,3 h -12 l -10,-4 -16,-9.999999 -11,-8 -15,-9 -17.0000003,-6 -3,-3 1,-7 7.0000003,-8 14,-11 15,-8 15,-4 h 16 l 12,3 15,8 8.999998,6 5,2 h 8 l 6,-4 3,-7 v -11 l -3,-6 v -3 l 12,-6 z m 19,233.9999989 -5,5 -2,4 v 10 l 4,8 7,7 5,2 5,-1 1,-4 -5,-10 -6,-7 -1,-7 3,-3 -1,-4 z m 63,0 -1,4 3,3 -1,7 -9,12 -2,7 2,3 7,-1 8,-7 4,-6 1,-3 v -10 l -5,-8 z"
     fill="#000000"
     id="path1" />
</svg>
